<svg width="189" height="176" viewBox="0 0 189 176" fill="none" xmlns="http://www.w3.org/2000/svg">
<path d="M0 19.9634C10.2383 13.308 20.491 6.68597 30.7054 0.00195312C30.6864 47.2481 30.7388 94.499 30.6816 141.745C26.6693 144.417 22.5854 146.979 18.5778 149.66C13.411 152.876 8.31089 156.206 3.25375 159.598C2.25663 160.294 1.18318 160.867 0.0620215 161.334C0.0143126 114.212 0.128814 67.0854 0 19.9634Z" fill="#E85984"/>
<path d="M30.7055 0.00178402C75.8763 0.00655491 121.052 -0.00775776 166.223 0.00655491C170.936 0.0685765 175.478 3.78033 175.865 8.59416C176.046 17.0577 175.745 25.5356 176.012 34.0039C176.113 66.403 176.027 98.8021 176.055 131.201C175.989 134.746 176.222 138.296 175.936 141.836C160.808 141.988 145.67 141.855 130.536 141.898C99.0485 141.898 67.5606 141.898 36.0727 141.902C34.2741 141.931 32.4707 141.941 30.6816 141.745C30.7389 94.4988 30.6864 47.2479 30.7055 0.00178402ZM92.7605 29.4716C89.7596 38.145 87.3646 47.0237 84.5736 55.7639C79.3638 72.8199 74.1492 89.8758 68.9346 106.932C68.4528 108.291 68.0472 109.685 67.8135 111.111C72.7466 111.187 77.6892 111.226 82.6223 111.097C84.5164 104.537 86.439 97.9863 88.2663 91.4073C88.4476 90.8252 88.6813 90.267 88.9103 89.7088C98.2661 89.7327 107.627 89.5848 116.982 89.7852C119.229 96.9081 121.367 104.069 123.752 111.144C128.795 111.173 133.843 111.206 138.885 111.116C135.894 101.083 132.488 91.1783 129.377 81.1832C123.766 63.9699 118.361 46.6897 112.717 29.4907C106.071 29.3284 99.4063 29.3618 92.7605 29.4716Z" fill="#E51050"/>
<path d="M102.545 40.0771C103.509 42.3815 103.891 44.8719 104.668 47.2383C107.521 57.3955 110.541 67.5145 113.275 77.7099C106.262 77.8053 99.2392 77.8101 92.2212 77.7099C95.4559 65.1148 99.2392 52.658 102.545 40.0771Z" fill="#E51050"/>
<path d="M92.7605 29.4714C99.4063 29.3617 106.071 29.3283 112.717 29.4905C118.361 46.6896 123.766 63.9697 129.377 81.1831C132.488 91.1781 135.894 101.082 138.885 111.116C133.843 111.206 128.795 111.173 123.752 111.144C121.367 104.069 119.229 96.9079 116.982 89.785C107.627 89.5846 98.2661 89.7325 88.9104 89.7087C88.6813 90.2669 88.4476 90.825 88.2663 91.4071C86.439 97.9862 84.5164 104.537 82.6223 111.097C77.6892 111.225 72.7466 111.187 67.8135 111.111C68.0473 109.684 68.4528 108.291 68.9346 106.932C74.1492 89.8756 79.3638 72.8197 84.5736 55.7638C87.3646 47.0235 89.7596 38.1449 92.7605 29.4714ZM102.546 40.0771C99.2393 52.6579 95.456 65.1147 92.2214 77.7099C99.2393 77.8101 106.262 77.8053 113.275 77.7099C110.542 67.5145 107.522 57.3954 104.669 47.2382C103.891 44.8718 103.509 42.3814 102.546 40.0771Z" fill="white"/>
<path d="M176.013 34.0044C180.044 33.5082 184.133 33.7611 188.183 33.8374C188.388 44.5004 188.212 55.1729 188.269 65.8406C188.269 99.8713 188.274 133.907 188.269 167.938C188.245 170.471 188.36 173.004 188.188 175.538C135.694 175.624 83.1998 175.533 30.7057 175.581C27.5903 175.571 24.1696 175.285 21.7508 173.095C19.9378 171.392 18.5304 169.044 18.5877 166.487C18.5734 160.877 18.5829 155.271 18.5781 149.66C22.5857 146.979 26.6696 144.417 30.6819 141.745C32.471 141.941 34.2744 141.931 36.073 141.903C67.5608 141.898 99.0487 141.898 130.537 141.898C145.67 141.855 160.808 141.989 175.936 141.836C176.223 138.296 175.989 134.747 176.056 131.202C176.027 98.8026 176.113 66.4035 176.013 34.0044Z" fill="#770829"/>
</svg>
